<svg xmlns="http://www.w3.org/2000/svg" xmlns:xlink="http://www.w3.org/1999/xlink" viewBox="0 0 1280 720" preserveAspectRatio="xMidYMid meet" overflow="hidden"><g><rect x="0" y="0" width="1280" height="720" fill="#FFFFFF"/><text font-family="Calibri,Calibri_MSFontService,sans-serif" font-weight="400" font-size="9" transform="translate(20 698)">C2 General</text><g><g><g><path d="M15.4688 18.3333C15.4688 18.9662 14.9557 19.4792 14.3229 19.4792 13.6901 19.4792 13.1771 18.9662 13.1771 18.3333 13.1771 17.7005 13.6901 17.1875 14.3229 17.1875 14.9557 17.1875 15.4688 17.7005 15.4688 18.3333Z" transform="matrix(1.01818 0 0 1 74 239)"/><path d="M15.4688 22.9167C15.4688 23.5495 14.9557 24.0625 14.3229 24.0625 13.6901 24.0625 13.1771 23.5495 13.1771 22.9167 13.1771 22.2838 13.6901 21.7708 14.3229 21.7708 14.9557 21.7708 15.4688 22.2838 15.4688 22.9167Z" transform="matrix(1.01818 0 0 1 74 239)"/><path d="M13.1771 20.625C13.1771 21.2578 12.6641 21.7708 12.0312 21.7708 11.3984 21.7708 10.8854 21.2578 10.8854 20.625 10.8854 19.9922 11.3984 19.4792 12.0312 19.4792 12.6641 19.4792 13.1771 19.9922 13.1771 20.625Z" transform="matrix(1.01818 0 0 1 74 239)"/><path d="M17.7604 20.625C17.7604 21.2578 17.2474 21.7708 16.6146 21.7708 15.9818 21.7708 15.4688 21.2578 15.4688 20.625 15.4688 19.9922 15.9818 19.4792 16.6146 19.4792 17.2474 19.4792 17.7604 19.9922 17.7604 20.625Z" transform="matrix(1.01818 0 0 1 74 239)"/><path d="M31.5104 16.0417C31.5104 16.6745 30.9974 17.1875 30.3646 17.1875 29.7318 17.1875 29.2188 16.6745 29.2188 16.0417 29.2188 15.4088 29.7318 14.8958 30.3646 14.8958 30.9974 14.8958 31.5104 15.4088 31.5104 16.0417Z" transform="matrix(1.01818 0 0 1 74 239)"/><path d="M31.5104 20.625C31.5104 21.2578 30.9974 21.7708 30.3646 21.7708 29.7318 21.7708 29.2188 21.2578 29.2188 20.625 29.2188 19.9922 29.7318 19.4792 30.3646 19.4792 30.9974 19.4792 31.5104 19.9922 31.5104 20.625Z" transform="matrix(1.01818 0 0 1 74 239)"/><path d="M29.2188 18.3333C29.2188 18.9662 28.7057 19.4792 28.0729 19.4792 27.4401 19.4792 26.9271 18.9662 26.9271 18.3333 26.9271 17.7005 27.4401 17.1875 28.0729 17.1875 28.7057 17.1875 29.2188 17.7005 29.2188 18.3333Z" transform="matrix(1.01818 0 0 1 74 239)"/><path d="M33.8021 18.3333C33.8021 18.9662 33.2891 19.4792 32.6562 19.4792 32.0234 19.4792 31.5104 18.9662 31.5104 18.3333 31.5104 17.7005 32.0234 17.1875 32.6562 17.1875 33.2891 17.1875 33.8021 17.7005 33.8021 18.3333Z" transform="matrix(1.01818 0 0 1 74 239)"/><path d="M46.9792 25.7812 43.5417 29.2188 38.9583 29.2188 38.9583 41.8229 43.5417 41.8229 46.9792 45.2604 50.4167 45.2604 50.4167 25.7812Z" transform="matrix(1.01818 0 0 1 74 239)"/><path d="M30.3646 23.4896C27.5 23.4896 25.2083 21.1979 25.2083 18.3333 25.2083 15.4688 27.5 13.1771 30.3646 13.1771 33.2292 13.1771 35.5208 15.4688 35.5208 18.3333 35.5208 21.1979 33.2292 23.4896 30.3646 23.4896ZM32.0833 41.8229C31.4531 41.8229 30.9375 41.3073 30.9375 40.6771 30.9375 40.0469 31.4531 39.5312 32.0833 39.5312 32.7135 39.5312 33.2292 40.0469 33.2292 40.6771 33.2292 41.3073 32.7135 41.8229 32.0833 41.8229ZM21.1979 25.7812C21.9427 24.75 22.5156 23.6042 22.7448 22.2865 23.4896 23.7188 24.6927 24.9219 26.0677 25.7812L21.1979 25.7812ZM14.3229 25.7812C11.4583 25.7812 9.16667 23.4896 9.16667 20.625 9.16667 17.7604 11.4583 15.4688 14.3229 15.4688 17.1875 15.4688 19.4792 17.7604 19.4792 20.625 19.4792 23.4896 17.1875 25.7812 14.3229 25.7812ZM34.6042 25.7812C37.1823 24.2917 38.9583 21.5417 38.9583 18.3333 38.9583 13.5781 35.1198 9.73958 30.3646 9.73958 26.1823 9.73958 22.7448 12.7188 21.9427 16.6719 20.5104 13.9219 17.6458 12.0312 14.3229 12.0312 9.56771 12.0312 5.72917 15.8698 5.72917 20.625 5.72917 23.4323 7.10417 25.8958 9.16667 27.5L9.16667 29.2188 8.02083 29.2188 6.875 28.0729 4.58333 28.0729 4.58333 33.8021 6.875 33.8021 8.02083 32.6562 9.16667 32.6562 9.16667 42.9688C9.16667 44.2292 10.1979 45.2604 11.4583 45.2604L34.375 45.2604C35.6354 45.2604 36.6667 44.2292 36.6667 42.9688L36.6667 28.0729C36.6667 26.8698 35.75 25.8958 34.6042 25.7812Z" transform="matrix(1.01818 0 0 1 74 239)"/></g></g></g><g><g><g><path d="M55 270C55 274.418 51.4183 278 47 278 42.5817 278 39 274.418 39 270 39 265.582 42.5817 262 47 262 51.4183 262 55 265.582 55 270Z"/><path d="M68.8 311.2 63.2 287.4C63 286.6 62.6 285.8 62 285.2 59.6 283.2 56.8 281.8 53.6 280.8 51.4 280.4 49.2 280 47 280 44.8 280 42.6 280.4 40.4 281 37.2 281.8 34.4 283.4 32 285.4 31.4 286 31 286.8 30.8 287.6L25.2 311.4C25.2 311.6 25 312 25 312.4 25 314.6 26.8 316.4 29 316.4 30.8 316.4 32.4 315 32.8 313.4L37 296 37 352 45 352 45 316 49 316 49 352 57 352 57 295.8 61.2 313.2C61.6 314.8 63.2 316.2 65 316.2 67.2 316.2 69 314.4 69 312.2 69 311.8 68.8 311.4 68.8 311.2Z"/></g></g></g><g><g><g><path d="M46.5 240.167C35.1144 240.179 25.8876 249.406 25.875 260.792L25.875 271.677C25.875 271.993 26.1315 272.25 26.4479 272.25 26.7643 272.25 27.0208 271.993 27.0208 271.677L27.0208 269.958 30.4583 269.958 30.4583 275.688C30.4583 276.953 31.4844 277.979 32.75 277.979L36.1875 277.979C37.4531 277.979 38.4792 276.953 38.4792 275.688L38.4792 263.083C38.4792 261.818 37.4531 260.792 36.1875 260.792L32.75 260.792C31.4844 260.792 30.4583 261.818 30.4583 263.083L30.4583 268.812 27.0208 268.812 27.0208 260.792C27.0208 250.034 35.7419 241.312 46.5 241.312 57.2581 241.312 65.9792 250.034 65.9792 260.792L65.9792 268.812 62.5417 268.812 62.5417 263.083C62.5417 261.818 61.5156 260.792 60.25 260.792L56.8125 260.792C55.5469 260.792 54.5208 261.818 54.5208 263.083L54.5208 275.688C54.5208 276.953 55.5469 277.979 56.8125 277.979L60.25 277.979C61.5156 277.979 62.5417 276.953 62.5417 275.688L62.5417 269.958 65.9792 269.958 65.9792 271.677C65.9792 271.993 66.2357 272.25 66.5521 272.25 66.8685 272.25 67.125 271.993 67.125 271.677L67.125 260.792C67.1124 249.406 57.8856 240.179 46.5 240.167ZM31.6042 263.083C31.6042 262.451 32.1172 261.938 32.75 261.938L36.1875 261.938C36.8203 261.938 37.3333 262.451 37.3333 263.083L37.3333 275.688C37.3333 276.32 36.8203 276.833 36.1875 276.833L32.75 276.833C32.1172 276.833 31.6042 276.32 31.6042 275.688ZM61.3958 275.688C61.3958 276.32 60.8828 276.833 60.25 276.833L56.8125 276.833C56.1797 276.833 55.6667 276.32 55.6667 275.688L55.6667 263.083C55.6667 262.451 56.1797 261.938 56.8125 261.938L60.25 261.938C60.8828 261.938 61.3958 262.451 61.3958 263.083Z"/></g></g></g><g><g><g><path d="M17.1875 8.02083 16.0417 8.02083 16.0417 46.9918 38.9583 46.9918 38.9583 8.02083 17.1875 8.02083ZM37.8125 45.8459 17.1875 45.8459 17.1875 9.16667 37.8125 9.16667Z" transform="matrix(1.01818 0 0 1 74 293)"/><path d="M40.6771 2.29167 14.3229 2.29167C13.6909 2.29355 13.179 2.80546 13.1771 3.4375L13.1771 51.5768C13.1793 52.2088 13.691 52.7205 14.3229 52.7227L40.6771 52.7227C41.3088 52.7201 41.8204 52.2086 41.8229 51.5768L41.8229 3.4375C41.8207 2.80559 41.309 2.29387 40.6771 2.29167ZM40.6771 51.5768 14.3229 51.5768 14.3229 3.4375 40.6771 3.4375Z" transform="matrix(1.01818 0 0 1 74 293)"/><path d="M25.2083 6.30208 30.3646 6.30208C30.681 6.30208 30.9375 6.04559 30.9375 5.72917 30.9375 5.41275 30.681 5.15625 30.3646 5.15625L25.2083 5.15625C24.8919 5.15625 24.6354 5.41275 24.6354 5.72917 24.6354 6.04559 24.8919 6.30208 25.2083 6.30208Z" transform="matrix(1.01818 0 0 1 74 293)"/></g></g></g><g><g><g><path d="M222.554 279.492C216.516 273.468 216.505 263.69 222.529 257.652 222.537 257.644 222.545 257.636 222.554 257.628L220.125 255.197C212.745 262.559 212.73 274.509 220.091 281.889 220.103 281.9 220.114 281.911 220.125 281.922Z"/><path d="M246.85 281.922C254.23 274.558 254.243 262.606 246.879 255.226 246.869 255.216 246.859 255.207 246.85 255.197L244.42 257.628C250.457 263.652 250.468 273.43 244.444 279.467 244.436 279.476 244.428 279.484 244.42 279.492Z"/><path d="M210.405 291.64 212.836 289.211C201.43 277.832 201.409 259.361 212.788 247.956 212.804 247.94 212.82 247.924 212.836 247.908L210.405 245.48C197.659 258.198 197.636 278.843 210.355 291.589 210.372 291.606 210.389 291.623 210.405 291.64Z"/><path d="M263.855 298.929 266.285 301.358C284.399 283.285 284.433 253.95 266.36 235.836 266.335 235.812 266.31 235.787 266.285 235.762L263.855 238.19C280.628 254.923 280.66 282.085 263.927 298.858 263.903 298.881 263.879 298.905 263.855 298.929Z"/><path d="M203.118 298.929C186.345 282.196 186.313 255.035 203.046 238.262 203.07 238.238 203.094 238.214 203.118 238.19L200.688 235.762C182.574 253.834 182.54 283.169 200.613 301.283 200.638 301.308 200.663 301.333 200.688 301.358Z"/><path d="M256.562 291.64C269.309 278.921 269.332 258.277 256.613 245.53 256.596 245.513 256.579 245.496 256.562 245.48L254.132 247.908C265.538 259.288 265.559 277.759 254.18 289.164 254.164 289.18 254.148 289.196 254.132 289.211Z"/><path d="M284.172 367.495C284.176 367.43 284.176 367.365 284.172 367.299 284.165 367.161 284.14 367.024 284.099 366.892 284.082 366.827 284.061 366.762 284.037 366.7 284.021 366.669 284.02 366.634 284.004 366.602L235.962 273.055C238.144 271.869 239.166 269.292 238.39 266.933 237.897 265.382 236.684 264.165 235.135 263.667 232.426 262.79 229.518 264.275 228.641 266.984 227.886 269.316 228.876 271.857 231.01 273.062L182.973 366.602C182.957 366.634 182.955 366.669 182.942 366.7 182.916 366.762 182.895 366.825 182.878 366.89 182.837 367.022 182.812 367.158 182.804 367.296 182.8 367.363 182.8 367.43 182.804 367.497 182.815 367.665 182.85 367.83 182.911 367.987 182.915 368.018 182.921 368.048 182.93 368.078L182.945 368.102C182.978 368.162 183.015 368.219 183.055 368.274 183.104 368.366 183.162 368.453 183.227 368.535L183.246 368.563C183.265 368.582 183.292 368.588 183.311 368.607 183.44 368.732 183.587 368.835 183.748 368.913 183.796 368.937 183.842 368.96 183.894 368.98 184.086 369.057 184.291 369.099 184.499 369.104 184.736 369.104 184.97 369.054 185.186 368.958L233.514 347.754 281.78 368.961C281.976 369.043 282.186 369.088 282.399 369.092 282.423 369.092 282.445 369.107 282.469 369.107 282.534 369.102 282.599 369.093 282.663 369.08 282.736 369.074 282.807 369.064 282.878 369.049 282.97 369.023 283.06 368.99 283.146 368.949 283.215 368.924 283.281 368.893 283.346 368.858 283.432 368.804 283.512 368.742 283.586 368.673 283.629 368.635 283.683 368.609 283.724 368.566 283.732 368.566 283.736 368.545 283.745 368.535 283.803 368.463 283.856 368.386 283.903 368.305 283.95 368.238 283.994 368.169 284.033 368.097L284.044 368.08C284.054 368.056 284.044 368.03 284.059 368.006 284.123 367.842 284.161 367.67 284.172 367.495ZM237.789 345.877 263.661 334.521 278.709 363.824C278.713 363.832 278.71 363.843 278.702 363.848 278.697 363.85 278.691 363.851 278.686 363.848ZM218.448 305.046 230.192 312.994 205.71 329.851ZM261.279 329.882 236.29 312.97 248.335 304.675ZM233.232 310.9 220.029 301.963 233.471 275.786C233.475 275.778 233.486 275.774 233.494 275.778 233.498 275.78 233.5 275.783 233.502 275.786L246.752 301.588ZM233.249 315.063 259.29 332.685 233.509 343.998 207.698 332.656ZM203.328 334.485 229.234 345.875 188.285 363.85C188.276 363.853 188.266 363.849 188.263 363.84 188.261 363.836 188.261 363.832 188.263 363.828Z"/></g></g></g><path d="M933.5 251C923.283 251 915 258.163 915 267 915 275.837 923.283 283 933.5 283 943.717 283 952 275.837 952 267 951.987 258.168 943.712 251.011 933.5 251ZM933.5 279C925.837 279 919.625 273.627 919.625 267 919.625 260.373 925.837 255 933.5 255 941.163 255 947.375 260.373 947.375 267 947.37 273.627 941.162 278.999 933.5 279.008Z" fill-rule="evenodd"/><path d="M1092.29 230.552 1080 222.079C1078.39 220.982 1077.25 219.411 1076.76 217.63L1072.12 203.013C1069.76 195.782 1062.53 190.797 1054.27 190.711L1031.09 190.711 1031.09 178 892 178 892 267 910.545 267C910.545 265.577 910.7 264.158 911.009 262.763L896.636 262.763 896.636 235.086 1026.45 235.086 1026.45 262.763 956.445 262.763C956.755 264.158 956.911 265.577 956.909 267L1033.41 267C1033.41 265.577 1033.56 264.158 1033.87 262.763L1031.09 262.763 1031.09 194.948 1040.36 194.948 1040.36 224.493 1076.02 224.493C1076.41 224.849 1076.82 225.181 1077.26 225.487L1089.45 233.895C1090.64 234.702 1091.35 235.976 1091.36 237.333L1091.36 258.518C1091.36 260.858 1089.29 262.755 1086.73 262.755L1079.31 262.755C1079.62 264.149 1079.77 265.569 1079.77 266.992L1086.73 266.992C1091.84 266.977 1095.98 263.191 1096 258.518L1096 237.333C1095.99 234.668 1094.62 232.159 1092.29 230.552ZM1026.45 230.849 896.636 230.849 896.636 182.237 1026.45 182.237ZM1045 194.948 1054.27 194.948C1060.46 195.047 1065.87 198.775 1067.67 204.18L1072.29 218.734C1072.44 219.251 1072.64 219.759 1072.87 220.252L1045 220.252Z" fill-rule="evenodd"/><path d="M1056.5 251C1046.28 251 1038 258.163 1038 267 1038 275.837 1046.28 283 1056.5 283 1066.72 283 1075 275.837 1075 267 1074.99 258.168 1066.71 251.011 1056.5 251ZM1056.5 279C1048.84 279 1042.62 273.627 1042.62 267 1042.62 260.373 1048.84 255 1056.5 255 1064.16 255 1070.38 260.373 1070.38 267 1070.37 273.627 1064.16 278.999 1056.5 279.008Z" fill-rule="evenodd"/><rect x="837" y="144" width="186" height="86" stroke="#FFFFFF" stroke-width="2" stroke-miterlimit="8" fill="#FFFFFF"/><g><g><g><path d="M84.3947 67.0382 84.4062 67.0382 84.4062 24.0928C86.8756 23.46 88.3646 20.9451 87.7317 18.4757 87.0989 16.0063 84.5841 14.5174 82.1147 15.1502 80.4823 15.5686 79.2075 16.8433 78.7892 18.4757L35.8438 18.4757 28.9062 11.5382C22.0742 24.017 21.3826 38.9501 27.032 52.007 29.0569 56.6025 31.863 60.8123 35.3257 64.4494L20.5258 96.1514C19.9881 97.3099 20.4913 98.6849 21.6497 99.2226 21.9561 99.3648 22.29 99.4382 22.6278 99.4375L51.3722 99.4375C52.6494 99.4374 53.6846 98.4018 53.6843 97.1247 53.6843 96.7868 53.6102 96.453 53.4673 96.1468L41.1891 69.8375C44.3991 72.457 47.9656 74.606 51.7815 76.22 57.3917 78.5641 63.4104 79.7744 69.4906 79.7812 69.6907 79.7812 69.8907 79.7812 70.0907 79.7812 77.5973 79.7038 84.9719 77.7968 91.575 74.2255ZM60.9344 43.5779 80.9155 23.6025C81.2833 23.8204 81.68 23.9854 82.0938 24.0928L82.0938 64.7373ZM83.25 17.3195C84.5272 17.3195 85.5625 18.3548 85.5625 19.632 85.5625 20.9092 84.5272 21.9445 83.25 21.9445 81.9728 21.9445 80.9375 20.9092 80.9375 19.632 80.9375 18.3548 81.9728 17.3195 83.25 17.3195ZM78.7892 20.7882C78.8964 21.203 79.0618 21.6005 79.2806 21.9688L59.3041 41.943 38.1562 20.7882ZM42.5986 78.3278 37 83.9276 31.4003 78.3278 36.9896 66.3503C36.9924 66.3445 36.9993 66.342 37.0051 66.3449 37.0074 66.346 37.0093 66.3479 37.0104 66.3503ZM30.3597 80.5571 35.3651 85.5625 23.8026 97.125 22.6463 97.125C22.6405 97.1253 22.6357 97.1209 22.6353 97.1152 22.6352 97.113 22.6358 97.1107 22.6371 97.1088ZM37 87.1974 46.9079 97.1053C46.9124 97.1099 46.9123 97.1173 46.9078 97.1217 46.9056 97.1237 46.9028 97.125 46.8998 97.125L27.1002 97.125C27.0938 97.1249 27.0887 97.1197 27.0887 97.1133 27.0889 97.1103 27.09 97.1074 27.0921 97.1053ZM50.1974 97.125 38.6349 85.5625 43.6403 80.5571 51.3641 97.1088C51.3673 97.1135 51.3661 97.12 51.3612 97.1233 51.3594 97.1245 51.3572 97.1251 51.3548 97.125ZM69.4906 77.4688C63.7137 77.4669 57.9945 76.318 52.6649 74.089 48.3802 72.2656 44.4258 69.7473 40.9613 66.6358L40.1878 65.9537C35.4566 61.8729 31.6887 56.7943 29.1548 51.0831 24.2271 39.6817 24.3629 26.7259 29.5283 15.4302L87.653 73.5687C82.1438 76.102 76.1578 77.4315 70.0942 77.4688 69.9057 77.4688 69.7219 77.4688 69.4906 77.4688Z" transform="matrix(1.18919 0 0 1 886 136)"/></g></g></g><g><g><g><path d="M865.628 228.761C865.68 228.716 865.728 228.667 865.771 228.613 865.809 228.565 865.842 228.514 865.871 228.46 865.9 228.404 865.923 228.346 865.939 228.285 865.959 228.22 865.973 228.153 865.98 228.085 865.98 228.055 865.997 228.029 865.997 227.998L865.997 212 869.997 212C870.549 212 870.997 211.552 870.997 211 870.997 210.448 870.549 210 869.997 210L857 210 857 184C857 183.448 856.552 183 856 183 855.448 183 855 183.448 855 184L855 187 811 187 811 184C811 183.448 810.552 183 810 183 809.448 183 809 183.448 809 184L809 210 796 210C795.448 210 795 210.448 795 211 795 211.552 795.448 212 796 212L800 212 800 228C800 228.031 800.015 228.057 800.017 228.086 800.024 228.154 800.038 228.221 800.058 228.286 800.075 228.346 800.098 228.404 800.126 228.459 800.189 228.573 800.273 228.675 800.372 228.759 800.395 228.779 800.408 228.805 800.433 228.822L831.239 250.069 806.433 267.177C805.979 267.491 805.864 268.113 806.178 268.568 806.365 268.838 806.672 269 807 269 807.202 269 807.4 268.939 807.566 268.823L833 251.283 858.433 268.823C858.599 268.939 858.797 269 859 269 859.552 269 860 268.552 860 268 860 267.671 859.839 267.364 859.568 267.177L834.761 250.069 865.567 228.823C865.592 228.806 865.605 228.78 865.628 228.761ZM811 189 855 189 855 208 811 208ZM811 210 855 210 855 218.271C847.926 220.732 840.49 221.992 833 222 825.51 221.991 818.074 220.73 811 218.267ZM802 212 809 212 809 218.687 802.017 225.67C802.013 225.674 802.007 225.674 802.003 225.67 802.001 225.668 802 225.666 802 225.663ZM833 248.854 808.979 232.288C808.975 232.284 808.975 232.278 808.979 232.274 808.981 232.271 808.985 232.27 808.988 232.271 816.751 234.747 824.851 236.005 833 236 841.144 236.005 849.24 234.75 857 232.278 857.005 232.276 857.01 232.279 857.012 232.283 857.013 232.287 857.011 232.292 857.008 232.294ZM833 234C822.591 234.016 812.288 231.91 802.721 227.81 802.716 227.806 802.716 227.799 802.719 227.794 802.72 227.794 802.72 227.794 802.721 227.793L810.352 220.163C817.634 222.699 825.289 223.996 833 224 840.712 223.996 848.369 222.699 855.652 220.162L863.283 227.792C863.288 227.796 863.288 227.803 863.284 227.807 863.284 227.808 863.284 227.809 863.283 227.809 853.714 231.91 843.41 234.017 833 234ZM863.979 225.661 857 218.678 857 212 864 212 864 225.654C864 225.66 863.995 225.664 863.99 225.664 863.987 225.664 863.985 225.663 863.983 225.661Z"/></g></g></g><path d="M795 52.0003C795 43.1636 802.164 36 811 36L932 36C940.836 36 948 43.1636 948 52.0003L948 116C948 124.836 940.836 132 932 132L811 132C802.164 132 795 124.836 795 116Z" stroke="#042433" stroke-width="2" stroke-miterlimit="8" fill="#156082" fill-rule="evenodd"/><path d="M815 52.5002C815 47.8057 818.806 44 823.5 44L919.5 44C924.194 44 928 47.8057 928 52.5002L928 86.4998C928 91.1943 924.194 95 919.5 95L823.5 95C818.806 95 815 91.1943 815 86.4998Z" stroke="#042433" stroke-width="2" stroke-miterlimit="8" fill="#FFFFFF" fill-rule="evenodd"/><g><g><g><path d="M823.25 110.333 840.75 110.333C844.202 110.333 847 107.535 847 104.083 847 100.632 844.202 97.8333 840.75 97.8333L823.25 97.8333C819.798 97.8333 817 100.632 817 104.083 817 107.535 819.798 110.333 823.25 110.333ZM823.25 98.6667 840.75 98.6667C843.742 98.6667 846.167 101.092 846.167 104.083 846.167 107.075 843.742 109.5 840.75 109.5L823.25 109.5C820.258 109.5 817.833 107.075 817.833 104.083 817.833 101.092 820.258 98.6667 823.25 98.6667Z" fill="#FFFFFF"/><path d="M840.75 107.833C842.821 107.833 844.5 106.154 844.5 104.083 844.5 102.012 842.821 100.333 840.75 100.333 838.679 100.333 837 102.012 837 104.083 837 106.154 838.679 107.833 840.75 107.833ZM840.75 101.167C842.361 101.167 843.667 102.473 843.667 104.083 843.667 105.694 842.361 107 840.75 107 839.139 107 837.833 105.694 837.833 104.083 837.835 102.473 839.14 101.169 840.75 101.167Z" fill="#FFFFFF"/><path d="M823.25 126.167 840.75 126.167C844.202 126.167 847 123.368 847 119.917 847 116.465 844.202 113.667 840.75 113.667L823.25 113.667C819.798 113.667 817 116.465 817 119.917 817 123.368 819.798 126.167 823.25 126.167ZM823.25 114.5 840.75 114.5C843.742 114.5 846.167 116.925 846.167 119.917 846.167 122.908 843.742 125.333 840.75 125.333L823.25 125.333C820.258 125.333 817.833 122.908 817.833 119.917 817.833 116.925 820.258 114.5 823.25 114.5Z" fill="#FFFFFF"/><path d="M823.25 123.667C825.321 123.667 827 121.988 827 119.917 827 117.846 825.321 116.167 823.25 116.167 821.179 116.167 819.5 117.846 819.5 119.917 819.5 121.988 821.179 123.667 823.25 123.667ZM823.25 117C824.861 117 826.167 118.306 826.167 119.917 826.167 121.527 824.861 122.833 823.25 122.833 821.639 122.833 820.333 121.527 820.333 119.917 820.335 118.307 821.64 117.002 823.25 117Z" fill="#FFFFFF"/></g></g></g><g><g><g><path d="M859.25 109.333 876.75 109.333C880.202 109.333 883 106.535 883 103.083 883 99.6315 880.202 96.8333 876.75 96.8333L859.25 96.8333C855.798 96.8333 853 99.6315 853 103.083 853 106.535 855.798 109.333 859.25 109.333ZM859.25 97.6667 876.75 97.6667C879.742 97.6667 882.167 100.092 882.167 103.083 882.167 106.075 879.742 108.5 876.75 108.5L859.25 108.5C856.258 108.5 853.833 106.075 853.833 103.083 853.833 100.092 856.258 97.6667 859.25 97.6667Z" fill="#FFFFFF"/><path d="M876.75 106.833C878.821 106.833 880.5 105.154 880.5 103.083 880.5 101.012 878.821 99.3333 876.75 99.3333 874.679 99.3333 873 101.012 873 103.083 873 105.154 874.679 106.833 876.75 106.833ZM876.75 100.167C878.361 100.167 879.667 101.473 879.667 103.083 879.667 104.694 878.361 106 876.75 106 875.139 106 873.833 104.694 873.833 103.083 873.835 101.473 875.14 100.169 876.75 100.167Z" fill="#FFFFFF"/><path d="M859.25 125.167 876.75 125.167C880.202 125.167 883 122.368 883 118.917 883 115.465 880.202 112.667 876.75 112.667L859.25 112.667C855.798 112.667 853 115.465 853 118.917 853 122.368 855.798 125.167 859.25 125.167ZM859.25 113.5 876.75 113.5C879.742 113.5 882.167 115.925 882.167 118.917 882.167 121.908 879.742 124.333 876.75 124.333L859.25 124.333C856.258 124.333 853.833 121.908 853.833 118.917 853.833 115.925 856.258 113.5 859.25 113.5Z" fill="#FFFFFF"/><path d="M859.25 122.667C861.321 122.667 863 120.988 863 118.917 863 116.846 861.321 115.167 859.25 115.167 857.179 115.167 855.5 116.846 855.5 118.917 855.5 120.988 857.179 122.667 859.25 122.667ZM859.25 116C860.861 116 862.167 117.306 862.167 118.917 862.167 120.527 860.861 121.833 859.25 121.833 857.639 121.833 856.333 120.527 856.333 118.917 856.335 117.307 857.64 116.002 859.25 116Z" fill="#FFFFFF"/></g></g></g><g><g><g><path d="M10.9688 17.875 28.0312 17.875C31.3967 17.875 34.125 15.1467 34.125 11.7812 34.125 8.41575 31.3967 5.6875 28.0312 5.6875L10.9688 5.6875C7.60325 5.6875 4.875 8.41575 4.875 11.7812 4.875 15.1467 7.60325 17.875 10.9688 17.875ZM10.9688 6.5 28.0312 6.5C30.948 6.5 33.3125 8.8645 33.3125 11.7812 33.3125 14.698 30.948 17.0625 28.0312 17.0625L10.9688 17.0625C8.052 17.0625 5.6875 14.698 5.6875 11.7812 5.6875 8.8645 8.052 6.5 10.9688 6.5Z" fill="#FFFFFF" transform="matrix(1.02564 0 0 1 886 92)"/><path d="M28.0312 15.4375C30.0506 15.4375 31.6875 13.8006 31.6875 11.7812 31.6875 9.76194 30.0506 8.125 28.0312 8.125 26.0119 8.125 24.375 9.76194 24.375 11.7812 24.375 13.8006 26.0119 15.4375 28.0312 15.4375ZM28.0312 8.9375C29.6018 8.9375 30.875 10.2107 30.875 11.7812 30.875 13.3518 29.6018 14.625 28.0312 14.625 26.4607 14.625 25.1875 13.3518 25.1875 11.7812 25.1893 10.2114 26.4614 8.93929 28.0312 8.9375Z" fill="#FFFFFF" transform="matrix(1.02564 0 0 1 886 92)"/><path d="M10.9688 33.3125 28.0312 33.3125C31.3967 33.3125 34.125 30.5842 34.125 27.2188 34.125 23.8533 31.3967 21.125 28.0312 21.125L10.9688 21.125C7.60325 21.125 4.875 23.8533 4.875 27.2188 4.875 30.5842 7.60325 33.3125 10.9688 33.3125ZM10.9688 21.9375 28.0312 21.9375C30.948 21.9375 33.3125 24.302 33.3125 27.2188 33.3125 30.1355 30.948 32.5 28.0312 32.5L10.9688 32.5C8.052 32.5 5.6875 30.1355 5.6875 27.2188 5.6875 24.302 8.052 21.9375 10.9688 21.9375Z" fill="#FFFFFF" transform="matrix(1.02564 0 0 1 886 92)"/><path d="M10.9688 30.875C12.9881 30.875 14.625 29.2381 14.625 27.2188 14.625 25.1994 12.9881 23.5625 10.9688 23.5625 8.94944 23.5625 7.3125 25.1994 7.3125 27.2188 7.3125 29.2381 8.94944 30.875 10.9688 30.875ZM10.9688 24.375C12.5393 24.375 13.8125 25.6482 13.8125 27.2188 13.8125 28.7893 12.5393 30.0625 10.9688 30.0625 9.39819 30.0625 8.125 28.7893 8.125 27.2188 8.12679 25.6489 9.39892 24.3768 10.9688 24.375Z" fill="#FFFFFF" transform="matrix(1.02564 0 0 1 886 92)"/></g></g></g><path d="M844 49 844 88.7267" stroke="#156082" stroke-width="4" stroke-miterlimit="8" fill="none" fill-rule="evenodd"/><path d="M865 49 865 88.7267" stroke="#156082" stroke-width="4" stroke-miterlimit="8" fill="none" fill-rule="evenodd"/><path d="M885 49 885 88.7267" stroke="#156082" stroke-width="4" stroke-miterlimit="8" fill="none" fill-rule="evenodd"/><path d="M906 49 906 88.7267" stroke="#156082" stroke-width="4" stroke-miterlimit="8" fill="none" fill-rule="evenodd"/><path d="M838 77 850.237 77.0001" stroke="#156082" stroke-width="4" stroke-miterlimit="8" fill="none" fill-rule="evenodd"/><path d="M858 56 870.237 56.0001" stroke="#156082" stroke-width="4" stroke-miterlimit="8" fill="none" fill-rule="evenodd"/><path d="M879 70 891.237 70.0001" stroke="#156082" stroke-width="4" stroke-miterlimit="8" fill="none" fill-rule="evenodd"/><path d="M900 64 912.237 64.0001" stroke="#156082" stroke-width="4" stroke-miterlimit="8" fill="none" fill-rule="evenodd"/><text font-family="Aptos,Aptos_MSFontService,sans-serif" font-weight="400" font-size="24" transform="translate(980.402 90)">On</text><text font-family="Aptos,Aptos_MSFontService,sans-serif" font-weight="400" font-size="24" transform="translate(1011.07 90)">-</text><text font-family="Aptos,Aptos_MSFontService,sans-serif" font-weight="400" font-size="24" transform="translate(1019.23 90)">site direction</text><g><g><g><path d="M351.792 330.565C341.39 330.565 332.958 338.997 332.958 349.399 332.958 359.8 341.39 368.232 351.792 368.232 362.193 368.232 370.625 359.8 370.625 349.399 370.612 339.003 362.188 330.578 351.792 330.565ZM351.792 363.524C343.991 363.524 337.667 357.2 337.667 349.399 337.667 341.598 343.991 335.274 351.792 335.274 359.593 335.274 365.917 341.598 365.917 349.399 365.911 357.199 359.592 363.523 351.792 363.533Z"/><path d="M512.817 308.9 500.34 299.483C498.703 298.265 497.539 296.518 497.044 294.539L492.335 278.296C489.939 270.261 482.592 264.721 474.208 264.625L450.667 264.625 450.667 250.5 309.417 250.5 309.417 349.403 328.25 349.403C328.249 347.822 328.407 346.245 328.721 344.695L314.125 344.695 314.125 313.938 445.958 313.938 445.958 344.695 374.862 344.695C375.177 346.244 375.335 347.822 375.333 349.403L453.021 349.403C453.02 347.822 453.178 346.245 453.492 344.695L450.667 344.695 450.667 269.333 460.083 269.333 460.083 302.167 496.29 302.167C496.687 302.562 497.109 302.931 497.555 303.271L509.93 312.615C511.143 313.512 511.863 314.927 511.875 316.435L511.875 339.977C511.875 342.578 509.767 344.686 507.167 344.686L499.633 344.686C499.948 346.235 500.106 347.813 500.104 349.394L507.167 349.394C512.36 349.377 516.567 345.171 516.583 339.977L516.583 316.435C516.574 313.473 515.18 310.685 512.817 308.9ZM445.958 309.229 314.125 309.229 314.125 255.208 445.958 255.208ZM464.792 269.333 474.208 269.333C480.488 269.444 485.981 273.586 487.815 279.593L492.503 295.766C492.663 296.341 492.861 296.905 493.096 297.454L464.792 297.454Z"/><path d="M476.562 330.565C466.161 330.565 457.729 338.997 457.729 349.399 457.729 359.8 466.161 368.232 476.562 368.232 486.964 368.232 495.396 359.8 495.396 349.399 495.383 339.003 486.958 330.578 476.562 330.565ZM476.562 363.524C468.762 363.524 462.438 357.2 462.438 349.399 462.438 341.598 468.762 335.274 476.562 335.274 484.364 335.274 490.688 341.598 490.688 349.399 490.682 357.199 484.363 363.523 476.562 363.533Z"/></g></g></g><text font-family="Aptos,Aptos_MSFontService,sans-serif" font-weight="700" font-size="32" transform="translate(327.033 293)">5G core</text><g><g><g><path d="M799.9 571.6C799.9 571.6 799.9 571.6 799.9 571.6 799.9 571.6 799.9 571.6 799.9 571.6 799.1 564.5 792.7 559.3 785.6 560 780.9 560.5 776.9 563.4 775 567.7L776.8 568.5C779.2 562.9 785.7 560.4 791.3 562.8 794.8 564.3 797.2 567.5 797.8 571.3 797.8 571.3 797.8 571.3 797.8 571.3 797.8 571.3 797.8 571.3 797.8 571.3L795.6 569.1 794.2 570.5 798.9 575.2 803.6 570.5 802.2 569.1 799.9 571.6Z"/><path d="M787 584C781.5 584 776.9 580 776.1 574.6 776.1 574.6 776.1 574.6 776.1 574.6 776.1 574.6 776.1 574.6 776.1 574.6L778.3 576.8 779.7 575.4 775 570.6 770.3 575.3 771.7 576.7 774 574.4C774 574.4 774 574.4 774 574.4 774 574.4 774 574.4 774 574.4 774.8 581.5 781.1 586.7 788.3 586 793 585.5 797 582.6 798.9 578.3L797.1 577.5C795.3 581.4 791.4 584 787 584Z"/><path d="M821.6 564.9C820.8 560 818.1 555.6 814.1 552.7 809.9 549.8 804.8 548.7 799.8 549.7 795.8 543.7 789.2 540 782 540 780.4 540 778.7 540.2 777.1 540.6 768.6 542.8 762.2 549.9 760.9 558.6 755.2 558.8 750 561.5 746.6 566 742.6 571.6 741.9 578.9 744.7 585.2 747.6 591.4 753.6 595.5 760.4 595.9L767.7 595.9 809.2 596 819.8 596C828.4 595.8 835.2 588.6 835 580 834.8 572.3 829.1 566 821.6 564.9 821.6 564.9 821.6 564.9 821.6 564.9ZM833 581.2C832.5 588.2 826.8 593.8 819.8 594L809.2 594 767.7 593.9 760.5 593.9C754.5 593.5 749.1 589.9 746.6 584.4 744 578.8 744.6 572.2 748.2 567.2 751.3 563.2 755.9 560.8 761 560.6L762.7 560.5 762.9 558.9C764.1 551 769.9 544.6 777.6 542.5 779 542.2 780.5 542 782 542 788.5 542 794.6 545.3 798.1 550.8L798.8 551.9 800.1 551.6C804.5 550.7 809.1 551.7 812.8 554.3 816.4 556.9 818.8 560.8 819.5 565.2L819.7 566.6 821.1 566.8C828.3 567.9 833.3 574.1 833 581.2L833 581.2Z"/></g></g></g><g><g><g><path d="M85.155 67.6422 85.1667 67.6422 85.1667 24.3098C87.6583 23.6713 89.1606 21.1338 88.5221 18.6422 87.8836 16.1505 85.3461 14.6482 82.8544 15.2867 81.2073 15.7088 79.9211 16.9951 79.499 18.6422L36.1667 18.6422 29.1667 11.6422C22.2731 24.2334 21.5753 39.301 27.2755 52.4755 29.3187 57.1124 32.1501 61.3601 35.644 65.03L20.7107 97.0177C20.1682 98.1865 20.6759 99.5739 21.8448 100.116 22.1539 100.26 22.4908 100.334 22.8317 100.333L51.835 100.333C53.1237 100.333 54.1682 99.2883 54.168 97.9996 54.168 97.6587 54.0932 97.3219 53.949 97.013L41.5602 70.4667C44.7991 73.1097 48.3978 75.2781 52.248 76.9067 57.9088 79.2719 63.9816 80.4931 70.1167 80.5 70.3185 80.5 70.5203 80.5 70.7222 80.5 78.2964 80.4218 85.7374 78.4976 92.4 74.8942ZM61.4833 43.9705 81.6445 23.8152C82.0156 24.035 82.4159 24.2015 82.8333 24.3098L82.8333 65.3205ZM84 17.4755C85.2887 17.4755 86.3333 18.5201 86.3333 19.8088 86.3333 21.0975 85.2887 22.1422 84 22.1422 82.7113 22.1422 81.6667 21.0975 81.6667 19.8088 81.6667 18.5201 82.7113 17.4755 84 17.4755ZM79.499 20.9755C79.6071 21.394 79.7741 21.7951 79.9948 22.1667L59.8383 42.3208 38.5 20.9755ZM42.9823 79.0335 37.3333 84.6837 31.6832 79.0335 37.3228 66.948C37.3256 66.9422 37.3326 66.9397 37.3385 66.9426 37.3408 66.9437 37.3427 66.9457 37.3438 66.948ZM30.6332 81.2828 35.6837 86.3333 24.017 98 22.8503 98C22.8445 98.0003 22.8396 97.9959 22.8392 97.9901 22.8391 97.9879 22.8397 97.9855 22.841 97.9837ZM37.3333 87.983 47.3305 97.9802C47.335 97.9847 47.3349 97.9922 47.3304 97.9966 47.3282 97.9987 47.3254 98 47.3223 98L27.3443 98C27.3379 97.9999 27.3328 97.9946 27.3328 97.9882 27.3329 97.9852 27.3341 97.9823 27.3362 97.9802ZM50.6497 98 38.983 86.3333 44.0335 81.2828 51.8268 97.9837C51.8301 97.9884 51.8288 97.995 51.8239 97.9982 51.822 97.9995 51.8198 98.0001 51.8175 98ZM70.1167 78.1667C64.2876 78.1648 58.517 77.0056 53.1393 74.7565 48.816 72.9167 44.826 70.3757 41.3303 67.2362L40.5498 66.5478C35.7761 62.4303 31.9741 57.306 29.4175 51.5433 24.4454 40.0392 24.5824 26.9667 29.7943 15.5692L88.4427 74.2315C82.8838 76.7876 76.8439 78.1291 70.7257 78.1667 70.5355 78.1667 70.35 78.1667 70.1167 78.1667Z" transform="matrix(-1.17857 0 0 1 927 471)"/></g></g></g><g><g><g><path d="M1011.71 610.161 962.788 602.564 962.712 602.98 962.712 615.002 970.879 616.27 970.879 625.667 944.338 625.667 944.338 580.811 950.462 579.392 950.462 566.777 840.212 592.316 840.212 604.931 848.379 603.039 848.379 707.333 1003.55 707.333 1003.55 621.344 1011.71 622.612ZM970.879 629.75 970.879 660.375 944.338 660.375 944.338 629.75ZM883.087 629.75 909.63 629.75 909.63 660.375 883.087 660.375ZM883.087 625.667 883.087 594.999 909.63 588.851 909.63 625.667ZM913.713 629.75 940.255 629.75 940.255 660.375 913.713 660.375ZM913.713 625.667 913.713 587.905 940.255 581.757 940.255 625.667ZM844.296 595.562 946.379 571.915 946.379 576.147 844.296 599.794ZM879.004 595.945 879.004 625.667 852.462 625.667 852.462 602.093ZM879.004 629.75 879.004 660.375 852.462 660.375 852.462 629.75ZM964.754 703.25 950.462 703.25 950.462 680.792 964.754 680.792ZM999.462 703.25 968.837 703.25 968.837 676.708 946.379 676.708 946.379 703.25 852.462 703.25 852.462 664.458 999.462 664.458ZM999.462 660.375 974.962 660.375 974.962 616.904 999.462 620.709ZM1007.63 617.846 966.796 611.504 966.796 607.319 1007.63 613.659Z"/></g></g></g><g><g><g><path d="M42.875 7.14583 6.125 7.14583C4.99882 7.1492 4.0867 8.06132 4.08333 9.1875L4.08333 33.6952C4.08698 34.8212 4.99893 35.7332 6.125 35.7368L20.9271 35.7368 20.9271 40.841 15.3125 40.841 15.3125 41.8618 33.6875 41.8618 33.6875 40.841 28.0729 40.841 28.0729 35.7368 42.875 35.7368C44.0011 35.7332 44.913 34.8212 44.9167 33.6952L44.9167 9.1875C44.9133 8.06132 44.0012 7.1492 42.875 7.14583ZM27.0521 40.843 21.9479 40.843 21.9479 35.7389 27.0521 35.7389ZM43.8958 33.6972C43.8958 34.261 43.4388 34.718 42.875 34.718L6.125 34.718C5.56119 34.718 5.10417 34.261 5.10417 33.6972L5.10417 9.1875C5.10417 8.62369 5.56119 8.16667 6.125 8.16667L42.875 8.16667C43.4388 8.16667 43.8958 8.62369 43.8958 9.1875Z" transform="matrix(1 0 0 1.02041 1078 579)"/><path d="M7.65625 9.69792 6.63542 9.69792 6.63542 33.1842 42.3646 33.1842 42.3646 9.69792 7.65625 9.69792ZM41.3438 32.1634 7.65625 32.1634 7.65625 10.7188 41.3438 10.7188Z" transform="matrix(1 0 0 1.02041 1078 579)"/></g></g></g><path d="M1204 687 1053 687 1083.2 629 1173.8 629Z" stroke="#042433" stroke-width="2" stroke-miterlimit="8" fill="none" fill-rule="evenodd"/><rect x="1053" y="687" width="149" height="22" stroke="#042433" stroke-width="2" stroke-miterlimit="8" fill="none"/><g><g><g><path d="M42.875 7.14583 6.125 7.14583C4.99882 7.1492 4.0867 8.06132 4.08333 9.1875L4.08333 33.6952C4.08698 34.8212 4.99893 35.7332 6.125 35.7368L20.9271 35.7368 20.9271 40.841 15.3125 40.841 15.3125 41.8618 33.6875 41.8618 33.6875 40.841 28.0729 40.841 28.0729 35.7368 42.875 35.7368C44.0011 35.7332 44.913 34.8212 44.9167 33.6952L44.9167 9.1875C44.9133 8.06132 44.0012 7.1492 42.875 7.14583ZM27.0521 40.843 21.9479 40.843 21.9479 35.7389 27.0521 35.7389ZM43.8958 33.6972C43.8958 34.261 43.4388 34.718 42.875 34.718L6.125 34.718C5.56119 34.718 5.10417 34.261 5.10417 33.6972L5.10417 9.1875C5.10417 8.62369 5.56119 8.16667 6.125 8.16667L42.875 8.16667C43.4388 8.16667 43.8958 8.62369 43.8958 9.1875Z" transform="matrix(1.02041 0 0 1 1127 579)"/><path d="M7.65625 9.69792 6.63542 9.69792 6.63542 33.1842 42.3646 33.1842 42.3646 9.69792 7.65625 9.69792ZM41.3438 32.1634 7.65625 32.1634 7.65625 10.7188 41.3438 10.7188Z" transform="matrix(1.02041 0 0 1 1127 579)"/></g></g></g><g><g><g><path d="M1125.77 659.917 1076.23 659.917C1074.56 659.919 1073.21 661.27 1073.21 662.938L1073.21 681.062C1073.21 682.73 1074.56 684.081 1076.23 684.083L1125.77 684.083C1127.44 684.081 1128.79 682.73 1128.79 681.062L1128.79 662.938C1128.79 661.27 1127.44 659.919 1125.77 659.917ZM1127.58 681.062C1127.58 682.064 1126.77 682.875 1125.77 682.875L1076.23 682.875C1075.23 682.875 1074.42 682.064 1074.42 681.062L1074.42 662.938C1074.42 661.936 1075.23 661.125 1076.23 661.125L1125.77 661.125C1126.77 661.125 1127.58 661.936 1127.58 662.938Z"/><path d="M1078.65 664.75 1081.06 664.75 1081.06 667.167 1078.65 667.167Z"/><path d="M1084.69 664.75 1087.1 664.75 1087.1 667.167 1084.69 667.167Z"/><path d="M1090.73 664.75 1093.15 664.75 1093.15 667.167 1090.73 667.167Z"/><path d="M1096.77 664.75 1099.19 664.75 1099.19 667.167 1096.77 667.167Z"/><path d="M1078.65 670.792 1081.06 670.792 1081.06 673.208 1078.65 673.208Z"/><path d="M1084.69 670.792 1087.1 670.792 1087.1 673.208 1084.69 673.208Z"/><path d="M1090.73 670.792 1093.15 670.792 1093.15 673.208 1090.73 673.208Z"/><path d="M1096.77 670.792 1099.19 670.792 1099.19 673.208 1096.77 673.208Z"/><path d="M1078.65 676.833 1081.06 676.833 1081.06 679.25 1078.65 679.25Z"/><path d="M1084.69 676.833 1087.1 676.833 1087.1 679.25 1084.69 679.25Z"/><path d="M1102.81 664.75 1105.23 664.75 1105.23 667.167 1102.81 667.167Z"/><path d="M1108.85 664.75 1111.27 664.75 1111.27 667.167 1108.85 667.167Z"/><path d="M1114.9 664.75 1117.31 664.75 1117.31 667.167 1114.9 667.167Z"/><path d="M1120.94 664.75 1123.35 664.75 1123.35 667.167 1120.94 667.167Z"/><path d="M1102.81 670.792 1105.23 670.792 1105.23 673.208 1102.81 673.208Z"/><path d="M1108.85 670.792 1111.27 670.792 1111.27 673.208 1108.85 673.208Z"/><path d="M1114.9 670.792 1117.31 670.792 1117.31 673.208 1114.9 673.208Z"/><path d="M1120.94 670.792 1123.35 670.792 1123.35 673.208 1120.94 673.208Z"/><path d="M1090.73 676.833 1111.27 676.833 1111.27 679.25 1090.73 679.25Z"/><path d="M1114.9 676.833 1117.31 676.833 1117.31 679.25 1114.9 679.25Z"/><path d="M1120.94 676.833 1123.35 676.833 1123.35 679.25 1120.94 679.25Z"/></g></g></g><g><g><g><path d="M53.7708 16.9167 4.22917 16.9167C2.56164 16.9187 1.21033 18.2699 1.20833 19.9375L1.20833 38.0625C1.21033 39.7301 2.56164 41.0813 4.22917 41.0833L53.7708 41.0833C55.4384 41.0813 56.7897 39.7301 56.7917 38.0625L56.7917 19.9375C56.7897 18.2699 55.4384 16.9187 53.7708 16.9167ZM55.5833 38.0625C55.5833 39.0635 54.7719 39.875 53.7708 39.875L4.22917 39.875C3.22815 39.875 2.41667 39.0635 2.41667 38.0625L2.41667 19.9375C2.41667 18.9365 3.22815 18.125 4.22917 18.125L53.7708 18.125C54.7719 18.125 55.5833 18.9365 55.5833 19.9375Z" transform="matrix(1 0 0 1.01724 1131 644)"/><path d="M6.64583 21.75 9.0625 21.75 9.0625 24.1667 6.64583 24.1667Z" transform="matrix(1 0 0 1.01724 1131 644)"/><path d="M12.6875 21.75 15.1042 21.75 15.1042 24.1667 12.6875 24.1667Z" transform="matrix(1 0 0 1.01724 1131 644)"/><path d="M18.7292 21.75 21.1458 21.75 21.1458 24.1667 18.7292 24.1667Z" transform="matrix(1 0 0 1.01724 1131 644)"/><path d="M24.7708 21.75 27.1875 21.75 27.1875 24.1667 24.7708 24.1667Z" transform="matrix(1 0 0 1.01724 1131 644)"/><path d="M6.64583 27.7917 9.0625 27.7917 9.0625 30.2083 6.64583 30.2083Z" transform="matrix(1 0 0 1.01724 1131 644)"/><path d="M12.6875 27.7917 15.1042 27.7917 15.1042 30.2083 12.6875 30.2083Z" transform="matrix(1 0 0 1.01724 1131 644)"/><path d="M18.7292 27.7917 21.1458 27.7917 21.1458 30.2083 18.7292 30.2083Z" transform="matrix(1 0 0 1.01724 1131 644)"/><path d="M24.7708 27.7917 27.1875 27.7917 27.1875 30.2083 24.7708 30.2083Z" transform="matrix(1 0 0 1.01724 1131 644)"/><path d="M6.64583 33.8333 9.0625 33.8333 9.0625 36.25 6.64583 36.25Z" transform="matrix(1 0 0 1.01724 1131 644)"/><path d="M12.6875 33.8333 15.1042 33.8333 15.1042 36.25 12.6875 36.25Z" transform="matrix(1 0 0 1.01724 1131 644)"/><path d="M30.8125 21.75 33.2292 21.75 33.2292 24.1667 30.8125 24.1667Z" transform="matrix(1 0 0 1.01724 1131 644)"/><path d="M36.8542 21.75 39.2708 21.75 39.2708 24.1667 36.8542 24.1667Z" transform="matrix(1 0 0 1.01724 1131 644)"/><path d="M42.8958 21.75 45.3125 21.75 45.3125 24.1667 42.8958 24.1667Z" transform="matrix(1 0 0 1.01724 1131 644)"/><path d="M48.9375 21.75 51.3542 21.75 51.3542 24.1667 48.9375 24.1667Z" transform="matrix(1 0 0 1.01724 1131 644)"/><path d="M30.8125 27.7917 33.2292 27.7917 33.2292 30.2083 30.8125 30.2083Z" transform="matrix(1 0 0 1.01724 1131 644)"/><path d="M36.8542 27.7917 39.2708 27.7917 39.2708 30.2083 36.8542 30.2083Z" transform="matrix(1 0 0 1.01724 1131 644)"/><path d="M42.8958 27.7917 45.3125 27.7917 45.3125 30.2083 42.8958 30.2083Z" transform="matrix(1 0 0 1.01724 1131 644)"/><path d="M48.9375 27.7917 51.3542 27.7917 51.3542 30.2083 48.9375 30.2083Z" transform="matrix(1 0 0 1.01724 1131 644)"/><path d="M18.7292 33.8333 39.2708 33.8333 39.2708 36.25 18.7292 36.25Z" transform="matrix(1 0 0 1.01724 1131 644)"/><path d="M42.8958 33.8333 45.3125 33.8333 45.3125 36.25 42.8958 36.25Z" transform="matrix(1 0 0 1.01724 1131 644)"/><path d="M48.9375 33.8333 51.3542 33.8333 51.3542 36.25 48.9375 36.25Z" transform="matrix(1 0 0 1.01724 1131 644)"/></g></g></g><g><g><g><path d="M1118 632 1086 632C1084.07 632.003 1082.5 633.568 1082.5 635.5L1082.5 658.5C1082.5 660.432 1084.07 661.997 1086 662L1118 662C1119.93 661.997 1121.5 660.432 1121.5 658.5L1121.5 635.5C1121.5 633.568 1119.93 632.003 1118 632ZM1086 633 1118 633C1119.38 633.002 1120.5 634.12 1120.5 635.5L1120.5 651 1083.5 651 1083.5 635.5C1083.5 634.12 1084.62 633.002 1086 633ZM1083.5 658.5 1083.5 652 1101.5 652 1101.5 661 1086 661C1084.62 660.998 1083.5 659.88 1083.5 658.5ZM1118 661 1102.5 661 1102.5 652 1120.5 652 1120.5 658.5C1120.5 659.88 1119.38 660.998 1118 661Z"/></g></g></g><g><g><g><path d="M1173 632 1141 632C1139.07 632.003 1137.5 633.568 1137.5 635.5L1137.5 658.5C1137.5 660.432 1139.07 661.997 1141 662L1173 662C1174.93 661.997 1176.5 660.432 1176.5 658.5L1176.5 635.5C1176.5 633.568 1174.93 632.003 1173 632ZM1141 633 1173 633C1174.38 633.002 1175.5 634.12 1175.5 635.5L1175.5 651 1138.5 651 1138.5 635.5C1138.5 634.12 1139.62 633.002 1141 633ZM1138.5 658.5 1138.5 652 1156.5 652 1156.5 661 1141 661C1139.62 660.998 1138.5 659.88 1138.5 658.5ZM1173 661 1157.5 661 1157.5 652 1175.5 652 1175.5 658.5C1175.5 659.88 1174.38 660.998 1173 661Z"/></g></g></g><g><g><g><path d="M1136.39 558C1136.49 558.663 1136.49 559.337 1136.39 560L1149.53 560C1149.43 559.337 1149.43 558.663 1149.53 558Z"/><path d="M1085 560 1093.56 560C1093.46 559.337 1093.46 558.663 1093.56 558L1087 558 1087 513 1171 513 1171 558 1164.38 558C1164.48 558.663 1164.48 559.337 1164.38 560L1173 560 1173 511 1085 511Z"/><path d="M1108.41 558C1108.51 558.663 1108.51 559.337 1108.41 560L1121.55 560C1121.5 559.672 1121.48 559.342 1121.48 559.011 1121.48 558.673 1121.5 558.335 1121.55 558Z"/><path d="M1093.09 569.005 1092.99 569.005C1090.79 569.01 1089 570.798 1088.99 573.005L1090.99 579.005 1110.98 579.005 1112.98 573.005C1112.98 570.798 1111.19 569.011 1108.98 569.005L1108.88 569.005C1108.43 567.227 1106.82 565.988 1104.98 566.005L1096.98 566.005C1095.16 566.023 1093.57 567.248 1093.09 569.005ZM1095.01 569.57C1095.24 568.663 1096.05 568.023 1096.99 568.007L1104.99 568.007C1105.9 567.989 1106.7 568.589 1106.94 569.464L1107.3 571.005 1108.99 571.005C1109.99 571.006 1110.83 571.744 1110.97 572.733L1109.54 577 1092.44 577 1091.01 572.733C1091.15 571.744 1091.99 571.006 1092.99 571.005L1094.59 571.005Z"/><path d="M1121.08 569.005 1120.98 569.005C1118.77 569.01 1116.98 570.798 1116.98 573.005L1118.98 579.005 1138.97 579.005 1140.97 573.005C1140.96 570.798 1139.17 569.01 1136.97 569.005 1136.44 567.234 1134.82 566.016 1132.97 566.005L1124.97 566.005C1123.15 566.024 1121.56 567.248 1121.08 569.005ZM1123 569.57C1123.23 568.663 1124.04 568.023 1124.98 568.007L1132.98 568.007C1133.93 568.026 1134.77 568.656 1135.05 569.57L1135.47 571.005 1136.97 571.005C1137.97 571.006 1138.82 571.743 1138.95 572.733L1137.53 577 1120.42 577 1119 572.733C1119.14 571.743 1119.98 571.006 1120.98 571.005L1122.58 571.005Z"/><path d="M1149.06 569.005 1148.96 569.005C1146.76 569.01 1144.97 570.798 1144.96 573.005L1146.96 579.005 1166.95 579.005 1168.95 573.005C1168.95 570.798 1167.16 569.01 1164.95 569.005 1164.42 567.234 1162.8 566.016 1160.95 566.005L1152.95 566.005C1151.13 566.023 1149.54 567.248 1149.06 569.005ZM1150.98 569.57C1151.21 568.663 1152.02 568.023 1152.96 568.007L1160.96 568.007C1161.92 568.022 1162.76 568.653 1163.04 569.57L1163.46 571.005 1164.96 571.005C1165.96 571.006 1166.81 571.743 1166.94 572.733L1165.51 577 1148.4 577 1146.98 572.733C1147.11 571.743 1147.96 571.006 1148.96 571.005L1150.56 571.005Z"/><path d="M1100.99 564.508C1104.03 564.508 1106.49 562.046 1106.49 559.008 1106.49 555.97 1104.03 553.508 1100.99 553.508 1097.95 553.508 1095.49 555.97 1095.49 559.008 1095.49 562.046 1097.95 564.508 1100.99 564.508ZM1100.99 555.514C1102.92 555.514 1104.49 557.081 1104.49 559.014 1104.49 560.947 1102.92 562.514 1100.99 562.514 1099.06 562.514 1097.49 560.947 1097.49 559.014 1097.49 557.081 1099.06 555.514 1100.99 555.514Z"/><path d="M1128.97 564.508C1132.01 564.508 1134.47 562.046 1134.47 559.008 1134.47 555.97 1132.01 553.508 1128.97 553.508 1125.94 553.508 1123.47 555.97 1123.47 559.008 1123.47 562.046 1125.94 564.508 1128.97 564.508ZM1128.97 555.514C1130.91 555.514 1132.47 557.081 1132.47 559.014 1132.47 560.947 1130.91 562.514 1128.97 562.514 1127.04 562.514 1125.47 560.947 1125.47 559.014 1125.47 557.081 1127.04 555.514 1128.97 555.514Z"/><path d="M1156.96 564.508C1160 564.508 1162.46 562.046 1162.46 559.008 1162.46 555.97 1160 553.508 1156.96 553.508 1153.92 553.508 1151.46 555.97 1151.46 559.008 1151.46 562.046 1153.92 564.508 1156.96 564.508ZM1156.96 555.514C1158.89 555.514 1160.46 557.081 1160.46 559.014 1160.46 560.947 1158.89 562.514 1156.96 562.514 1155.03 562.514 1153.46 560.947 1153.46 559.014 1153.46 557.081 1155.03 555.514 1156.96 555.514Z"/></g></g></g><path d="M1028 573 1028 499 1078 513.8 1078 558.2Z" stroke="#042433" stroke-width="2" stroke-miterlimit="8" fill="none" fill-rule="evenodd"/><path d="M0 0 74 0 59.2 49 14.8 49Z" stroke="#042433" stroke-width="2" stroke-miterlimit="8" fill="none" fill-rule="evenodd" transform="matrix(-6.12323e-17 -1 -1 6.12323e-17 1229 573)"/><text font-family="Aptos,Aptos_MSFontService,sans-serif" font-weight="400" font-size="24" transform="translate(1020.25 485)">Remote control</text><text font-family="Aptos,Aptos_MSFontService,sans-serif" font-weight="400" font-size="24" transform="translate(1184.97 485)">roo</text><text font-family="Aptos,Aptos_MSFontService,sans-serif" font-weight="400" font-size="24" transform="translate(1218.97 485)">m</text><path d="M517.797 252.931 718.093 167.864 713.356 156.711 745.136 169.543 732.303 201.323 727.566 190.17 527.271 275.237Z" stroke="#042433" stroke-width="2" stroke-miterlimit="8" fill="#156082" fill-rule="evenodd"/><text fill="#FFFFFF" font-family="Aptos,Aptos_MSFontService,sans-serif" font-weight="400" font-size="24" transform="matrix(0.920428 -0.390913 0.390913 0.920428 572.782 251)">Audio/Video</text><path d="M531.236 400.625 719.694 509.431 725.752 498.937 734.622 532.042 701.518 540.913 707.576 530.419 519.119 421.613Z" stroke="#042433" stroke-width="2" stroke-miterlimit="8" fill="#156082" fill-rule="evenodd"/><text fill="#FFFFFF" font-family="Aptos,Aptos_MSFontService,sans-serif" font-weight="400" font-size="24" transform="matrix(0.866025 0.5 -0.5 0.866025 555.468 437)">IP connectivity</text><path d="M914 525.25 996.5 525.25 996.5 513 1021 537.5 996.5 562 996.5 549.75 914 549.75Z" stroke="#042433" stroke-width="2" stroke-miterlimit="8" fill="#156082" fill-rule="evenodd"/><text fill="#FFFFFF" font-family="Aptos,Aptos_MSFontService,sans-serif" font-weight="400" font-size="24" transform="translate(943.294 545)">A/V</text><path d="M0 0 32.5628 57.1862" stroke="#000000" stroke-width="4" stroke-miterlimit="8" fill="none" fill-rule="evenodd" transform="matrix(1 0 0 -1 282 364.186)"/></g></svg>